<?xml version="1.0" standalone="no"?>
<!DOCTYPE svg PUBLIC "-//W3C//DTD SVG 20010904//EN"
 "http://www.w3.org/TR/2001/REC-SVG-20010904/DTD/svg10.dtd">
<svg version="1.0" xmlns="http://www.w3.org/2000/svg"
 width="32.000000pt" height="32.000000pt" viewBox="0 0 32.000000 32.000000"
 preserveAspectRatio="xMidYMid meet">

<g transform="translate(0.000000,32.000000) scale(0.100000,-0.100000)"
fill="#ffffff" stroke="none">
<path d="M50 236 c0 -18 -7 -39 -15 -46 -8 -7 -15 -20 -15 -30 0 -10 7 -23 15
-30 8 -7 15 -28 15 -46 0 -19 5 -34 10 -34 6 0 10 16 10 36 0 19 7 42 15 50 8
9 15 19 15 24 0 5 -7 15 -15 24 -8 8 -15 31 -15 50 0 20 -4 36 -10 36 -5 0
-10 -15 -10 -34z m26 -67 c10 -17 -13 -36 -27 -22 -12 12 -4 33 11 33 5 0 12
-5 16 -11z"/>
<path d="M132 258 c-16 -16 -15 -33 3 -48 11 -9 15 -33 15 -86 0 -43 4 -74 10
-74 6 0 10 31 10 72 0 53 4 76 17 90 13 15 15 23 7 36 -14 21 -45 27 -62 10z
m46 -26 c2 -7 -6 -12 -17 -12 -21 0 -27 11 -14 24 9 9 26 2 31 -12z"/>
<path d="M250 218 c0 -34 -6 -58 -16 -69 -15 -17 -15 -20 0 -43 9 -14 16 -32
16 -41 0 -8 5 -15 10 -15 6 0 10 8 10 17 0 9 7 24 16 34 16 18 12 59 -7 59 -5
0 -9 25 -9 55 0 30 -4 55 -10 55 -5 0 -10 -23 -10 -52z m30 -93 c0 -8 -6 -15
-14 -15 -17 0 -28 14 -19 24 12 12 33 6 33 -9z"/>
</g>
</svg>
